<?xml version="1.0" encoding="utf-8"?>
<svg viewBox="0 0 500 500" xmlns="http://www.w3.org/2000/svg" xmlns:bx="https://boxy-svg.com">
  <rect style="stroke: rgb(0, 0, 0); stroke-width: 4px; fill: rgb(129, 255, 232);" x="80" y="80" width="80" height="80" rx="10" ry="10" bx:origin="-0.687463 -1.292863"/>
  <path d="M 145.893 137.105 C 147.792 131.895 148.794 126.121 148.794 120.29 C 148.794 114.461 147.792 108.688 145.893 103.478 C 146.269 103.464 146.618 103.274 146.829 102.962 C 147.048 102.637 147.09 102.226 146.941 101.864 L 144.578 96.131 C 144.397 95.69 143.966 95.402 143.488 95.402 L 141.936 95.402 C 140.61 93.321 139.122 91.425 137.501 89.764 C 137.278 89.536 136.973 89.408 136.654 89.408 L 102.748 89.408 C 102.43 89.408 102.124 89.536 101.902 89.764 C 100.283 91.425 98.795 93.321 97.468 95.402 L 95.914 95.402 C 95.435 95.402 95.004 95.69 94.823 96.131 L 92.461 101.864 C 92.312 102.226 92.354 102.637 92.573 102.961 C 92.784 103.274 93.132 103.464 93.509 103.478 C 91.61 108.688 90.608 114.461 90.608 120.29 C 90.608 126.121 91.61 131.895 93.509 137.105 C 93.132 137.118 92.784 137.308 92.573 137.621 C 92.354 137.946 92.312 138.357 92.461 138.719 L 94.823 144.452 C 95.004 144.892 95.435 145.18 95.914 145.18 L 97.468 145.18 C 98.795 147.261 100.283 149.157 101.902 150.819 C 102.124 151.046 102.43 151.175 102.748 151.175 L 136.654 151.175 C 136.973 151.175 137.278 151.046 137.5 150.819 C 139.121 149.158 140.61 147.262 141.935 145.18 L 143.487 145.18 C 143.966 145.18 144.397 144.892 144.578 144.452 L 146.94 138.719 C 147.089 138.357 147.047 137.946 146.829 137.621 C 146.618 137.308 146.269 137.118 145.893 137.105 Z M 143.377 137.102 L 139.132 137.102 C 140.527 131.899 141.264 126.124 141.264 120.29 C 141.264 114.458 140.527 108.683 139.132 103.481 L 143.377 103.481 C 145.378 108.639 146.435 114.432 146.435 120.29 C 146.435 126.15 145.378 131.944 143.377 137.102 Z M 102.712 137.102 C 101.261 131.941 100.496 126.15 100.496 120.29 C 100.496 114.432 101.261 108.642 102.712 103.481 L 111.112 103.481 C 110.627 107.836 110.341 112.508 110.261 117.403 C 108.152 118.077 106.622 120.047 106.622 122.365 C 106.622 124.729 108.212 126.728 110.385 127.364 C 110.526 130.751 110.77 134.018 111.112 137.102 L 102.712 137.102 Z M 111.863 125.232 C 110.273 125.232 108.979 123.946 108.979 122.365 C 108.979 120.784 110.273 119.498 111.863 119.498 C 113.453 119.498 114.747 120.784 114.747 122.365 C 114.747 123.946 113.453 125.232 111.863 125.232 Z M 113.485 137.102 C 113.142 134.065 112.895 130.846 112.75 127.501 C 115.219 127.08 117.104 124.938 117.104 122.365 C 117.104 119.747 115.154 117.575 112.622 117.209 C 112.709 112.374 112.998 107.767 113.484 103.481 L 125.917 103.481 C 126.501 108.646 126.808 114.432 126.808 120.29 C 126.808 126.15 126.501 131.937 125.917 137.102 L 113.485 137.102 Z M 128.289 103.481 L 136.689 103.481 C 138.139 108.642 138.905 114.432 138.905 120.29 C 138.905 126.15 138.139 131.941 136.689 137.102 L 128.289 137.102 C 128.863 131.917 129.166 126.137 129.166 120.29 C 129.166 114.444 128.863 108.665 128.289 103.481 Z M 139.106 95.403 L 136.218 95.403 C 135.612 94.111 134.957 92.892 134.26 91.752 L 136.15 91.752 C 137.2 92.865 138.188 94.088 139.106 95.403 Z M 133.598 95.403 L 127.085 95.403 C 126.833 94.107 126.56 92.886 126.271 91.752 L 131.463 91.752 C 132.222 92.869 132.936 94.092 133.598 95.403 Z M 123.836 91.752 C 124.136 92.873 124.42 94.095 124.682 95.403 L 114.719 95.403 C 114.981 94.095 115.265 92.873 115.565 91.752 L 123.836 91.752 Z M 113.129 91.752 C 112.84 92.886 112.569 94.107 112.316 95.403 L 105.804 95.403 C 106.468 94.088 107.182 92.865 107.939 91.752 L 113.129 91.752 Z M 103.254 91.752 L 105.142 91.752 C 104.447 92.889 103.792 94.108 103.184 95.403 L 100.297 95.403 C 101.216 94.088 102.204 92.865 103.254 91.752 Z M 96.705 97.747 L 142.697 97.747 L 144.092 101.136 L 95.309 101.136 L 96.705 97.747 Z M 96.024 103.481 L 100.27 103.481 C 98.874 108.683 98.138 114.458 98.138 120.29 C 98.138 126.124 98.874 131.899 100.27 137.102 L 96.024 137.102 C 94.023 131.943 92.966 126.15 92.966 120.29 C 92.966 114.432 94.023 108.639 96.024 103.481 Z M 100.297 145.18 L 103.184 145.18 C 103.792 146.475 104.447 147.694 105.142 148.83 L 103.254 148.83 C 102.204 147.717 101.216 146.494 100.297 145.18 Z M 105.804 145.18 L 112.316 145.18 C 112.569 146.476 112.84 147.696 113.129 148.83 L 107.939 148.83 C 107.182 147.717 106.468 146.494 105.804 145.18 Z M 115.565 148.83 C 115.265 147.708 114.981 146.487 114.719 145.18 L 124.682 145.18 C 124.42 146.487 124.136 147.708 123.836 148.83 L 115.565 148.83 Z M 126.272 148.83 C 126.561 147.696 126.833 146.476 127.085 145.18 L 133.598 145.18 C 132.936 146.49 132.222 147.713 131.464 148.83 L 126.272 148.83 Z M 136.15 148.83 L 134.26 148.83 C 134.957 147.691 135.611 146.472 136.218 145.18 L 139.106 145.18 C 138.188 146.494 137.2 147.717 136.15 148.83 Z M 142.697 142.835 L 96.705 142.835 L 95.309 139.446 L 144.092 139.446 L 142.697 142.835 Z" style="fill: rgb(12, 88, 241);"/>
  <g transform="matrix(0.196297, 0, 0, 0.207251, 517.094727, 362.337677)" style=""/>
  <g transform="matrix(0.196297, 0, 0, 0.207251, 517.094727, 362.337677)" style=""/>
  <g transform="matrix(0.196297, 0, 0, 0.207251, 517.094727, 362.337677)" style=""/>
  <g transform="matrix(0.196297, 0, 0, 0.207251, 517.094727, 362.337677)" style=""/>
  <g transform="matrix(0.196297, 0, 0, 0.207251, 517.094727, 362.337677)" style=""/>
  <g transform="matrix(0.196297, 0, 0, 0.207251, 517.094727, 362.337677)" style=""/>
  <g transform="matrix(0.196297, 0, 0, 0.207251, 517.094727, 362.337677)" style=""/>
  <g transform="matrix(0.196297, 0, 0, 0.207251, 517.094727, 362.337677)" style=""/>
  <g transform="matrix(0.196297, 0, 0, 0.207251, 517.094727, 362.337677)" style=""/>
  <g transform="matrix(0.196297, 0, 0, 0.207251, 517.094727, 362.337677)" style=""/>
  <g transform="matrix(0.196297, 0, 0, 0.207251, 517.094727, 362.337677)" style=""/>
  <g transform="matrix(0.196297, 0, 0, 0.207251, 517.094727, 362.337677)" style=""/>
  <g transform="matrix(0.196297, 0, 0, 0.207251, 517.094727, 362.337677)" style=""/>
  <g transform="matrix(0.196297, 0, 0, 0.207251, 517.094727, 362.337677)" style=""/>
  <g transform="matrix(0.196297, 0, 0, 0.207251, 517.094727, 362.337677)" style=""/>
</svg>