<?xml version="1.0" encoding="utf-8"?>
<svg viewBox="2 2 40 40" xmlns="http://www.w3.org/2000/svg" xmlns:bx="https://boxy-svg.com">
  <rect style="stroke: rgb(0, 0, 0); fill: rgb(129, 255, 232); stroke-width: 2px;" width="40" height="40" rx="10" ry="10" x="2" y="2" bx:origin="-0.05 -0.05"/>
  <path d="M 34.947 30.552 C 35.896 27.947 36.396 25.06 36.396 22.146 C 36.396 19.231 35.896 16.344 34.947 13.739 C 35.136 13.732 35.309 13.636 35.416 13.481 C 35.524 13.318 35.546 13.113 35.471 12.932 L 34.289 10.066 C 34.199 9.846 33.984 9.701 33.744 9.701 L 32.968 9.701 C 32.306 8.66 31.561 7.712 30.751 6.882 C 30.639 6.768 30.487 6.704 30.327 6.704 L 13.374 6.704 C 13.216 6.704 13.062 6.768 12.951 6.882 C 12.142 7.712 11.398 8.66 10.734 9.701 L 9.956 9.701 C 9.718 9.701 9.502 9.846 9.412 10.066 L 8.231 12.932 C 8.156 13.113 8.176 13.318 8.287 13.48 C 8.392 13.636 8.566 13.732 8.756 13.739 C 7.806 16.344 7.304 19.231 7.304 22.146 C 7.304 25.06 7.806 27.947 8.756 30.552 C 8.566 30.559 8.392 30.654 8.287 30.811 C 8.176 30.973 8.156 31.179 8.231 31.359 L 9.412 34.226 C 9.502 34.446 9.718 34.591 9.956 34.591 L 10.734 34.591 C 11.398 35.631 12.142 36.579 12.951 37.411 C 13.062 37.524 13.216 37.588 13.374 37.588 L 30.327 37.588 C 30.487 37.588 30.639 37.524 30.751 37.411 C 31.561 36.579 32.306 35.631 32.968 34.591 L 33.744 34.591 C 33.984 34.591 34.199 34.446 34.289 34.226 L 35.471 31.359 C 35.546 31.179 35.524 30.973 35.416 30.811 C 35.309 30.654 35.136 30.559 34.947 30.552 Z M 33.689 30.551 L 31.566 30.551 C 32.264 27.951 32.632 25.062 32.632 22.146 C 32.632 19.229 32.264 16.341 31.566 13.74 L 33.689 13.74 C 34.689 16.319 35.218 19.216 35.218 22.146 C 35.218 25.076 34.689 27.972 33.689 30.551 Z M 13.356 30.551 C 12.631 27.971 12.248 25.076 12.248 22.146 C 12.248 19.216 12.631 16.321 13.356 13.74 L 17.556 13.74 C 17.314 15.918 17.171 18.254 17.131 20.701 C 16.076 21.039 15.311 22.024 15.311 23.182 C 15.311 24.366 16.106 25.364 17.193 25.682 C 17.264 27.376 17.386 29.009 17.556 30.551 L 13.356 30.551 Z M 17.932 24.616 C 17.136 24.616 16.491 23.973 16.491 23.182 C 16.491 22.392 17.136 21.749 17.932 21.749 C 18.727 21.749 19.374 22.392 19.374 23.182 C 19.374 23.973 18.727 24.616 17.932 24.616 Z M 18.744 30.551 C 18.571 29.033 18.448 27.424 18.376 25.751 C 19.611 25.54 20.552 24.469 20.552 23.182 C 20.552 21.874 19.576 20.788 18.311 20.606 C 18.356 18.187 18.499 15.884 18.742 13.74 L 24.959 13.74 C 25.251 16.324 25.404 19.216 25.404 22.146 C 25.404 25.076 25.251 27.969 24.959 30.551 L 18.744 30.551 Z M 26.146 13.74 L 30.346 13.74 C 31.071 16.321 31.453 19.216 31.453 22.146 C 31.453 25.076 31.071 27.971 30.346 30.551 L 26.146 30.551 C 26.432 27.959 26.584 25.069 26.584 22.146 C 26.584 19.222 26.432 16.332 26.146 13.74 Z M 31.553 9.701 L 30.109 9.701 C 29.806 9.056 29.479 8.446 29.131 7.876 L 30.076 7.876 C 30.6 8.432 31.094 9.044 31.553 9.701 Z M 28.799 9.701 L 25.544 9.701 C 25.416 9.053 25.28 8.444 25.136 7.876 L 27.732 7.876 C 28.111 8.434 28.468 9.046 28.799 9.701 Z M 23.918 7.876 C 24.068 8.436 24.211 9.047 24.341 9.701 L 19.36 9.701 C 19.491 9.047 19.633 8.436 19.784 7.876 L 23.918 7.876 Z M 18.566 7.876 C 18.42 8.444 18.286 9.053 18.158 9.701 L 14.902 9.701 C 15.234 9.044 15.591 8.432 15.971 7.876 L 18.566 7.876 Z M 13.627 7.876 L 14.571 7.876 C 14.224 8.444 13.896 9.054 13.592 9.701 L 12.149 9.701 C 12.608 9.044 13.102 8.432 13.627 7.876 Z M 10.353 10.873 L 33.349 10.873 L 34.046 12.568 L 9.656 12.568 L 10.353 10.873 Z M 10.012 13.74 L 12.136 13.74 C 11.436 16.341 11.069 19.229 11.069 22.146 C 11.069 25.062 11.436 27.951 12.136 30.551 L 10.012 30.551 C 9.012 27.972 8.484 25.076 8.484 22.146 C 8.484 19.216 9.012 16.319 10.012 13.74 Z M 12.149 34.591 L 13.592 34.591 C 13.896 35.238 14.224 35.847 14.571 36.416 L 13.627 36.416 C 13.102 35.859 12.608 35.247 12.149 34.591 Z M 14.902 34.591 L 18.158 34.591 C 18.286 35.238 18.42 35.848 18.566 36.416 L 15.971 36.416 C 15.591 35.859 15.234 35.247 14.902 34.591 Z M 19.784 36.416 C 19.633 35.854 19.491 35.244 19.36 34.591 L 24.341 34.591 C 24.211 35.244 24.068 35.854 23.918 36.416 L 19.784 36.416 Z M 25.136 36.416 C 25.281 35.848 25.416 35.238 25.544 34.591 L 28.799 34.591 C 28.468 35.246 28.111 35.856 27.732 36.416 L 25.136 36.416 Z M 30.076 36.416 L 29.131 36.416 C 29.479 35.846 29.806 35.236 30.109 34.591 L 31.553 34.591 C 31.094 35.247 30.6 35.859 30.076 36.416 Z M 33.349 33.416 L 10.353 33.416 L 9.656 31.724 L 34.046 31.724 L 33.349 33.416 Z" style="fill: rgb(12, 88, 241); stroke-width: 2px;" bx:origin="-0.251066 -0.21707"/>
</svg>